<svg width="24" height="24" viewBox="0 0 24 24" fill="none" xmlns="http://www.w3.org/2000/svg">
<path d="M12 10.5C9.105 10.5 6.75 8.145 6.75 5.25C6.75 2.355 9.105 0 12 0C14.895 0 17.25 2.355 17.25 5.25C17.25 8.145 14.895 10.5 12 10.5ZM12 1.5C9.93225 1.5 8.25 3.18225 8.25 5.25C8.25 7.31775 9.93225 9 12 9C14.0677 9 15.75 7.31775 15.75 5.25C15.75 3.18225 14.0677 1.5 12 1.5ZM20.25 24C20.0511 24 19.8603 23.921 19.7197 23.7803C19.579 23.6397 19.5 23.4489 19.5 23.25V18.6637C19.4986 17.2833 18.9496 15.9597 17.9736 14.9835C16.9975 14.0072 15.674 13.4581 14.2935 13.4565H9.7065C8.32601 13.4581 7.00252 14.0072 6.02644 14.9835C5.05035 15.9597 4.50139 17.2833 4.5 18.6637V23.25C4.5 23.4489 4.42098 23.6397 4.28033 23.7803C4.13968 23.921 3.94891 24 3.75 24C3.55109 24 3.36032 23.921 3.21967 23.7803C3.07902 23.6397 3 23.4489 3 23.25V18.6637C3 14.9663 6.009 11.9565 9.7065 11.9565H14.2935C17.991 11.9565 21 14.9655 21 18.6637V23.25C21 23.4489 20.921 23.6397 20.7803 23.7803C20.6397 23.921 20.4489 24 20.25 24Z" fill="#121843"/>
</svg>
