<svg width="25" height="25" viewBox="0 0 25 25" fill="none" xmlns="http://www.w3.org/2000/svg">
<path d="M21.875 20.8333C21.875 21.4089 21.4089 21.875 20.8333 21.875H4.16667C3.59115 21.875 3.125 21.4089 3.125 20.8333V4.16667C3.125 3.59115 3.59115 3.125 4.16667 3.125H20.8333C21.4089 3.125 21.875 3.59115 21.875 4.16667V20.8333Z" fill="#3B5998"/>
<path opacity="0.05" d="M13.0208 19.7917V14.0625H10.9375V10.9375H13.0208V9.82395C13.0208 7.19791 14.4094 5.75208 16.9297 5.75208C17.9688 5.75208 18.5323 5.82499 18.8036 5.86041L19.2505 5.91822L19.2708 6.36666V8.85416H17.3776C16.7901 8.85416 16.6667 9.57187 16.6667 10.1745V10.9375H19.1266L18.6432 14.0625H16.6667V19.7917H13.0208Z" fill="black"/>
<path opacity="0.07" d="M13.2813 19.5312V13.802H11.1979V11.1979H13.2813V9.82391C13.2813 7.33016 14.5427 6.01245 16.9297 6.01245C17.9563 6.01245 18.5078 6.08433 18.7735 6.1187L19.0005 6.14839L19.011 6.3786V8.5937H17.3781C16.5328 8.5937 16.4068 9.58381 16.4068 10.1744V11.1979H18.8235L18.4209 13.802H16.4063V19.5312H13.2813Z" fill="black"/>
<path d="M17.3776 8.33328H18.75V6.37807C18.4937 6.34473 17.9526 6.27234 16.9297 6.27234C14.7937 6.27234 13.5416 7.35567 13.5416 9.8239V11.4583H11.4583V13.5416H13.5416V19.2708H16.1458V13.5416H18.1969L18.5187 11.4583H16.1458V10.1744C16.1458 9.19838 16.4646 8.33328 17.3776 8.33328Z" fill="white"/>
</svg>
