<svg width="18" height="18" viewBox="0 0 18 18" fill="none" xmlns="http://www.w3.org/2000/svg">
<path fill-rule="evenodd" clip-rule="evenodd" d="M12.9579 4.40978C15.2465 6.80627 15.159 10.6042 12.7625 12.8928C10.366 15.1814 6.56804 15.0939 4.27947 12.6974C1.99091 10.3009 2.07839 6.50295 4.47488 4.21438C6.87136 1.92582 10.6693 2.0133 12.9579 4.40978ZM14.8242 13.6038C17.3384 10.5225 17.2218 5.9789 14.4043 3.02851C11.3529 -0.166799 6.28892 -0.283445 3.09361 2.76797C-0.101705 5.8194 -0.218352 10.8834 2.83307 14.0787C5.6506 17.0291 10.184 17.3547 13.3778 14.9851L15.4925 17.1995C15.8739 17.5989 16.5069 17.6135 16.9063 17.232C17.3057 16.8506 17.3203 16.2176 16.9389 15.8182L14.8242 13.6038Z" fill="#B2B2B2"/>
</svg>
