<svg width="24" height="24" viewBox="0 0 24 24" fill="none" xmlns="http://www.w3.org/2000/svg">
<path fill-rule="evenodd" clip-rule="evenodd" d="M14.2307 8.16966C15.9089 9.92708 15.8448 12.7123 14.0874 14.3906C12.3299 16.0688 9.54476 16.0047 7.86647 14.2473C6.18819 12.4898 6.25235 9.70465 8.00977 8.02637C9.76719 6.34809 12.5524 6.41224 14.2307 8.16966ZM16.013 15.2486C18.0243 12.7836 17.9311 9.14871 15.6771 6.78839C13.2359 4.23214 9.18475 4.13883 6.6285 6.57996C4.07225 9.0211 3.97893 13.0723 6.42007 15.6285C8.67409 17.9888 12.3008 18.2493 14.8559 16.3537L16.5476 18.1252C16.8527 18.4447 17.3591 18.4564 17.6787 18.1512C17.9982 17.8461 18.0099 17.3397 17.7047 17.0201L16.013 15.2486Z" fill="#B2B2B2"/>
</svg>
