<svg width="24" height="24" viewBox="0 0 24 24" fill="none" xmlns="http://www.w3.org/2000/svg">
<path d="M20.625 6.15751C20.5555 5.85304 20.4183 5.56816 20.2235 5.32404C20.0287 5.07993 19.7814 4.88287 19.5 4.74751L12.9225 1.70251C12.6412 1.56909 12.3338 1.49988 12.0225 1.49988C11.7112 1.49988 11.4037 1.56909 11.1225 1.70251L4.56747 4.75501C4.28428 4.88326 4.03387 5.07408 3.83511 5.31312C3.63634 5.55216 3.4944 5.83317 3.41997 6.13501C2.60414 9.44443 2.98676 12.9358 4.49997 15.99C5.93256 18.8322 8.32325 21.0768 11.25 22.3275C11.4874 22.4302 11.7416 22.4887 12 22.5C12.2977 22.5007 12.5919 22.4367 12.8625 22.3125C15.7373 21.0326 18.0819 18.7993 19.5 15.99C20.9971 12.9402 21.3946 9.46671 20.625 6.15751ZM18.15 15.315C16.8878 17.8094 14.8103 19.797 12.2625 20.9475C12.1855 20.9807 12.1026 20.9979 12.0187 20.9979C11.9349 20.9979 11.8519 20.9807 11.775 20.9475C9.18544 19.8319 7.07356 17.8369 5.81247 15.315C4.47108 12.5771 4.13908 9.45368 4.87497 6.49501C4.89558 6.4107 4.93541 6.33229 4.99136 6.26593C5.04731 6.19957 5.11785 6.14706 5.19747 6.11251L11.76 3.06001C11.8427 3.01903 11.9339 2.9977 12.0262 2.9977C12.1186 2.9977 12.2097 3.01903 12.2925 3.06001L18.84 6.10501C18.9192 6.14217 18.9892 6.19642 19.045 6.26385C19.1007 6.33128 19.1409 6.41022 19.1625 6.49501C19.8534 9.46373 19.4957 12.5801 18.15 15.315Z" fill="#231F20"/>
<path d="M15.15 8.55L11.2275 13.8L8.83498 10.8C8.71123 10.6455 8.5314 10.5461 8.33471 10.5236C8.13801 10.5012 7.94041 10.5574 7.78498 10.68C7.70738 10.7414 7.64268 10.8174 7.59461 10.9039C7.54655 10.9904 7.51606 11.0855 7.5049 11.1838C7.49375 11.2821 7.50215 11.3816 7.52963 11.4766C7.5571 11.5717 7.6031 11.6603 7.66498 11.7375L10.665 15.4875C10.737 15.5718 10.8269 15.639 10.928 15.6844C11.0292 15.7298 11.1391 15.7522 11.25 15.75C11.3639 15.7477 11.4757 15.7195 11.5771 15.6675C11.6785 15.6155 11.7667 15.5411 11.835 15.45L16.335 9.45C16.3941 9.37121 16.4371 9.28155 16.4615 9.18614C16.486 9.09073 16.4914 8.99144 16.4774 8.89393C16.4635 8.79643 16.4305 8.70263 16.3803 8.61788C16.3302 8.53313 16.2638 8.45909 16.185 8.4C16.1062 8.3409 16.0165 8.29791 15.9211 8.27346C15.8257 8.24902 15.7264 8.24361 15.6289 8.25754C15.5314 8.27147 15.4376 8.30446 15.3529 8.35464C15.2681 8.40482 15.1941 8.47121 15.135 8.55H15.15Z" fill="#231F20"/>
</svg>
